 <svg  version="1.0" xmlns="http://www.w3.org/2000/svg"  width="200.000000pt" height="200.000000pt" viewBox="0 0 200.000000 200.000000"  preserveAspectRatio="xMidYMid meet">  <g transform="translate(0.000000,200.000000) scale(0.100000,-0.100000)" fill="#1967b2" stroke="none"> <path d="M870 1980 c-146 -20 -327 -88 -433 -162 -216 -152 -367 -380 -413 -628 -22 -117 -15 -346 15 -446 185 -634 917 -919 1470 -572 404 252 568 761 388 1202 -67 163 -211 342 -354 439 -191 130 -459 196 -673 167z m447 -810 c102 -201 228 -447 280 -548 52 -101 93 -186 90 -188 -3 -3 -49 6 -103 20 -55 14 -128 33 -164 42 -36 9 -70 21 -76 28 -6 6 -83 150 -169 321 -87 171 -166 323 -176 338 l-17 29 -125 -244 c-69 -134 -150 -290 -180 -348 l-55 -105 -167 -43 c-92 -23 -170 -41 -172 -38 -5 5 -2 12 179 366 138 270 418 821 488 959 l32 63 75 -143 c41 -79 158 -308 260 -509z m-627 141 c-44 -89 -80 -166 -80 -171 0 -5 -4 -11 -9 -15 -13 -7 -2 26 44 144 20 51 34 95 32 98 -3 2 -44 -20 -93 -49 l-89 -53 -3 -184 c-3 -172 -5 -187 -26 -218 -13 -18 -25 -31 -27 -29 -2 2 -3 108 -1 234 l3 230 97 57 c53 31 126 74 162 96 36 21 66 35 68 31 1 -5 -34 -82 -78 -171z m672 88 c84 -51 159 -97 166 -103 9 -9 12 -66 10 -241 l-3 -229 -27 42 c-28 41 -28 42 -28 220 l0 178 -91 53 c-50 29 -92 51 -93 49 -2 -1 16 -55 40 -118 24 -63 43 -119 43 -125 0 -5 -40 73 -89 174 -50 101 -90 185 -90 187 0 8 15 0 162 -87z m-462 -440 c-17 -41 -53 -130 -81 -199 -28 -69 -59 -144 -70 -167 -10 -24 -19 -49 -19 -55 0 -7 59 -48 131 -91 l130 -78 130 82 c72 45 128 86 126 93 -13 31 -210 492 -215 501 -3 7 -1 7 6 0 5 -5 39 -66 75 -135 35 -69 97 -189 137 -267 40 -79 71 -145 69 -146 -18 -16 -307 -191 -319 -194 -17 -4 -350 186 -350 200 0 5 62 131 137 280 131 260 178 334 113 176z"/> </g> </svg> 